<svg width="174" height="108" viewBox="0 0 174 108" fill="none" xmlns="http://www.w3.org/2000/svg">
<path d="M24.5714 0.799805H149.143C161.956 0.799805 172.343 11.187 172.343 24V84C172.343 96.813 161.956 107.2 149.143 107.2H24.5714C11.7584 107.2 1.37123 96.813 1.37123 84V24C1.37123 11.187 11.7584 0.799805 24.5714 0.799805Z" stroke="#F1F1F1" stroke-width="1.6"/>
<g clip-path="url(#clip0_174_210)">
<path d="M111.857 69.6978L93.7384 38.302L84.0321 43.8999L98.9176 69.6978H111.857ZM94.5926 69.6978L82.6259 48.9791L72.9196 54.577L81.653 69.6978H94.5926ZM71.5613 59.6728L77.3446 69.6978H64.4051L61.8571 65.2708L71.5613 59.6728Z" fill="black"/>
</g>
<defs>
<clipPath id="clip0_174_210">
<rect width="50" height="50" fill="white" transform="translate(61.8571 29)"/>
</clipPath>
</defs>
</svg>
