<svg width="174" height="108" viewBox="0 0 174 108" fill="none" xmlns="http://www.w3.org/2000/svg">
<path d="M24.7143 0.799805H149.286C162.099 0.799805 172.486 11.187 172.486 24V84C172.486 96.813 162.099 107.2 149.286 107.2H24.7143C11.9013 107.2 1.5141 96.813 1.5141 84V24C1.5141 11.187 11.9013 0.799805 24.7143 0.799805Z" stroke="#F1F1F1" stroke-width="1.6"/>
<g clip-path="url(#clip0_174_220)">
<path d="M87.3521 50.4708L89.6667 46.4354L97.5292 45.9312L97.8042 45.4396L90.5375 44.9354L92.2458 41.9896H105.725C109.871 41.9896 112.933 43.4791 111.74 47.8229C111.385 49.1521 109.7 52.475 104.748 53.8625C105.804 53.9875 108.415 55.1458 107.956 58.1479C107.156 63.4771 100.269 66.0104 96.4292 66.0104L80.5104 66.0229L79.7188 62.9396L88.0625 62.3562L88.3479 61.8625L79.2937 61.3125L78.3208 57.6562L91.1917 56.9L91.4771 56.4187L68.3604 54.975L69.4729 53.0479L94.3646 51.4333L94.6521 50.9521L87.3521 50.4708ZM97.7687 51.2729L100.06 51.2604C101.598 51.25 103.19 50.5521 103.775 49.1396C104.315 47.8229 103.592 46.7 102.629 46.7104H100.406L97.7687 51.2729ZM95.1229 55.8458L92.3604 60.6479H94.9958C96.2229 60.6479 98.4125 60.0396 99.0875 58.2979C99.7167 56.6708 98.5604 55.8458 97.7583 55.8458H95.1229ZM75.0417 63.2604L73.4375 66L62 66.0208L63.1125 64.0979L75.0417 63.2604ZM75.8437 41.9771L85.0458 41.9896L85.7458 44.5896L74.7542 43.9021L75.8437 41.9771ZM86.2604 46.6541L87.2687 50.4708L71.5562 49.4396L72.6562 47.5229L86.2604 46.6541ZM78.2604 57.6562L76.2667 61.1166L65.1833 60.4875L66.2958 58.5625L78.2604 57.6562Z" fill="black"/>
</g>
<defs>
<clipPath id="clip0_174_220">
<rect width="50" height="50" fill="white" transform="translate(62 29)"/>
</clipPath>
</defs>
</svg>
