<svg width="173" height="108" viewBox="0 0 173 108" fill="none" xmlns="http://www.w3.org/2000/svg">
<rect x="0.8" y="0.8" width="170.971" height="106.4" rx="23.2" stroke="#F1F1F1" stroke-width="1.6"/>
<g clip-path="url(#clip0_174_205)">
<path d="M111.286 45.2501L74.707 60.8251C71.6737 62.1098 69.1265 62.7522 67.0654 62.7522C64.732 62.7522 63.0397 61.9348 61.9883 60.3001C61.3286 59.2501 61.1341 57.9182 61.405 56.3043C61.6772 54.6904 62.3966 52.9696 63.5633 51.1418C64.5355 49.6626 66.1307 47.7182 68.3487 45.3085C67.5954 46.4928 67.0435 47.7937 66.7154 49.1585C66.132 51.6473 66.657 53.4751 68.2904 54.6418C69.0682 55.1862 70.1376 55.4585 71.4987 55.4585C72.5862 55.4585 73.8112 55.2835 75.1737 54.9335L111.286 45.2501Z" fill="black"/>
</g>
<defs>
<clipPath id="clip0_174_205">
<rect width="50" height="50" fill="white" transform="translate(61.2857 29)"/>
</clipPath>
</defs>
</svg>
