<svg width="173" height="108" viewBox="0 0 173 108" fill="none" xmlns="http://www.w3.org/2000/svg">
<path d="M24.1429 0.799805H148.714C161.527 0.799805 171.914 11.187 171.914 24V84C171.914 96.813 161.527 107.2 148.714 107.2H24.1429C11.3299 107.2 0.942657 96.813 0.942657 84V24C0.942657 11.187 11.3298 0.799805 24.1429 0.799805Z" stroke="#F1F1F1" stroke-width="1.6"/>
<g clip-path="url(#clip0_174_215)">
<path d="M111.106 35.2666C110.237 34.1561 108.718 35.0457 108.05 35.4332C103.291 38.2374 102.589 43.1749 100.931 46.0103C99.6268 48.2811 97.4893 49.9478 95.556 50.077C94.1268 50.1791 92.5768 49.902 91.0393 49.2332C87.2747 47.6061 85.2476 45.4999 84.7539 45.1291C83.7393 44.3582 75.9414 36.7645 69.5872 36.4541C69.5872 36.4541 68.8122 34.8916 68.6185 34.8645C68.156 34.8124 67.681 35.8041 67.3351 35.9082C67.0226 36.0186 66.4747 34.8416 66.158 34.8936C65.8393 34.9353 65.5289 36.1145 64.908 36.7207C64.4497 37.1645 63.8955 37.1374 63.581 37.6853C63.4726 37.8853 63.5101 38.2374 63.3872 38.5603C63.1226 39.227 62.2393 39.2978 62.231 40.0124C62.231 40.8061 62.9747 40.9582 63.6247 41.5124C64.1414 41.9541 64.1768 42.2666 64.7789 42.4728C65.3164 42.6561 66.0955 42.0832 66.7872 42.2895C67.3643 42.4582 67.9185 42.5811 68.0414 43.1707C68.1539 43.7041 68.0414 44.5416 67.333 44.4478C67.0997 44.4166 66.0872 44.0853 64.8372 44.2186C63.3268 44.3791 61.6018 44.8624 61.433 46.5311C61.3476 47.4624 62.5039 48.552 63.631 48.3353C64.4039 48.1874 64.0393 47.2811 64.4622 46.8436C65.0185 46.2811 68.1539 48.8103 71.0705 48.8103C72.306 48.8103 73.2185 48.4978 74.1268 47.5499C74.2101 47.4895 74.3205 47.3374 74.4497 47.3207C74.595 47.357 74.7326 47.4191 74.856 47.5041C77.2122 49.3728 78.9893 53.1291 87.6268 53.1728C88.8393 53.1874 90.231 53.7541 91.3685 54.7916C92.3685 55.6936 92.9601 57.1353 93.5289 58.5936C94.3997 60.7874 95.9476 62.9041 98.3039 65.2666C98.4289 65.4082 100.366 66.8916 100.512 67.002C100.537 67.0228 100.687 67.3499 100.623 67.5332C100.581 68.9707 100.366 73.0957 103.466 73.2686C104.229 73.3103 104.039 72.7874 104.039 72.4145C104.029 71.7041 103.904 70.9874 104.275 70.2478C104.802 69.252 103.179 68.7707 103.214 66.5895C103.254 64.9561 101.871 65.2332 101.164 63.9853C100.768 63.2707 100.398 62.877 100.435 62.0145C100.587 57.0561 99.358 53.7895 98.758 52.9999C98.2851 52.3874 97.8768 52.1603 98.3268 51.8749C100.91 50.177 101.504 48.5957 101.504 48.5957C102.879 45.3853 104.121 42.4603 105.827 41.1582C106.173 40.9082 107.054 40.2416 107.602 39.9916C109.191 39.2374 110.046 38.7874 110.493 38.3499C111.235 37.6478 111.816 36.1561 111.106 35.2666Z" fill="black"/>
</g>
<defs>
<clipPath id="clip0_174_215">
<rect width="50" height="50" fill="white" transform="translate(61.4286 29)"/>
</clipPath>
</defs>
</svg>
